<svg id="ic_help" xmlns="http://www.w3.org/2000/svg" width="32" height="32" viewBox="0 0 32 32">
  <g id="Group_200" data-name="Group 200" transform="translate(0 0.306)">
    <rect id="Rectangle_84" data-name="Rectangle 84" width="32" height="32" rx="6" transform="translate(0 -0.306)" fill="#66b821"/>
    <path id="Path_89" data-name="Path 89" d="M876,116a8,8,0,1,1,8-8A8,8,0,0,1,876,116Zm0-11.2a1.6,1.6,0,0,0-1.6,1.6.8.8,0,0,1-1.6,0,3.2,3.2,0,0,1,3.2-3.2,3.068,3.068,0,0,1,3.2,3.038,2.581,2.581,0,0,1-1.055,2.164c-.074.063-.906.738-.937.763a.794.794,0,0,0-.4.785.8.8,0,0,1-1.6,0,2.332,2.332,0,0,1,1-2.035c-.027.022.832-.675.892-.726a1.049,1.049,0,0,0,.5-.952A1.475,1.475,0,0,0,876,104.8Zm0,8a.8.8,0,1,1,.8-.8A.8.8,0,0,1,876,112.8Z" transform="translate(-860 -92)" fill="#fff" fill-rule="evenodd"/>
  </g>
</svg>
