<svg id="ic_logout" xmlns="http://www.w3.org/2000/svg" width="32" height="32" viewBox="0 0 32 32">
  <g id="Group_200" data-name="Group 200">
    <rect id="Rectangle_84" data-name="Rectangle 84" width="32" height="32" rx="6" transform="translate(0 0)" fill="#ff6724"/>
    <path id="Path_36" data-name="Path 36" d="M4.469,4.535a1,1,0,0,0,1.417,0L7,3.413v8.572a1,1,0,1,0,2,0V3.413l1.118,1.118a1,1,0,1,0,1.414-1.414L8.714.3A1,1,0,0,0,7.3.292L4.471,3.118A1,1,0,0,0,4.469,4.535ZM14,17.99s0-9,0-9H12a1,1,0,1,1,0-2h2a2,2,0,0,1,2,2V17.99a2,2,0,0,1-2,2H2a2,2,0,0,1-2-2V9a2,2,0,0,1,2-2H4a1,1,0,0,1,0,2L2,9s0,9,0,9S14,17.991,14,17.99Z" transform="translate(26.996 8.011) rotate(90)" fill="#fff" fill-rule="evenodd"/>
  </g>
</svg>
