<svg id="ic_notification" xmlns="http://www.w3.org/2000/svg" width="32" height="32" viewBox="0 0 32 32">
  <g id="Group_200" data-name="Group 200" transform="translate(0 -0.299)">
    <rect id="Rectangle_84" data-name="Rectangle 84" width="32" height="32" rx="6" transform="translate(0 0.299)" fill="#ffdc30"/>
    <path id="Path_2" data-name="Path 2" d="M1256.667,18.889a2.667,2.667,0,0,1-1.329-4.979c0-.27,0-3.467,0-3.467a6.655,6.655,0,0,1,4.889-6.43V3.778a1.778,1.778,0,1,1,3.556,0v.235a6.656,6.656,0,0,1,4.889,6.435v3.47a2.663,2.663,0,0,1-1.333,4.971h-2.667a2.667,2.667,0,0,1-5.333,0Zm4.444,0a.889.889,0,1,0,1.778,0Z" transform="translate(-1246 4)" fill="#fff" fill-rule="evenodd"/>
  </g>
</svg>
