<svg id="ic_settings" xmlns="http://www.w3.org/2000/svg" width="32" height="32" viewBox="0 0 32 32">
  <g id="Group_200" data-name="Group 200" transform="translate(0 0.394)">
    <rect id="Rectangle_84" data-name="Rectangle 84" width="32" height="32" rx="6" transform="translate(0 -0.394)" fill="#291c84"/>
    <path id="Path_47" data-name="Path 47" d="M1360.184,102.82l.633.371s1.9-.331,2.01-.341a1.551,1.551,0,0,1,1.48.738l.8,1.379a1.538,1.538,0,0,1-.086,1.633c-.077.109-1.313,1.587-1.313,1.587s.009.109.009.368c0,.125-.009.373-.009.373s1.236,1.472,1.3,1.563a1.541,1.541,0,0,1,.1,1.652l-.8,1.379a1.539,1.539,0,0,1-1.463.74l-2.036-.344-.624.369s-.663,1.809-.71,1.909a1.554,1.554,0,0,1-1.382.914H1356.5a1.541,1.541,0,0,1-1.373-.892c-.056-.122-.719-1.938-.719-1.938l-.637-.364s-1.895.334-2.006.344a1.551,1.551,0,0,1-1.48-.738l-.8-1.379a1.538,1.538,0,0,1,.086-1.633c.077-.11,1.313-1.588,1.313-1.588s-.009-.108-.009-.367c0-.122.009-.366.009-.366s-1.236-1.479-1.3-1.57a1.541,1.541,0,0,1-.1-1.652l.8-1.379a1.537,1.537,0,0,1,1.459-.741c.133.012,2.045.346,2.045.346l.629-.373s.654-1.805.7-1.906A1.554,1.554,0,0,1,1356.5,100h1.591a1.54,1.54,0,0,1,1.373.892C1359.521,101.014,1360.184,102.82,1360.184,102.82Zm-2.887,8.3a2.566,2.566,0,1,1,2.566-2.566A2.567,2.567,0,0,1,1357.3,111.121Z" transform="translate(-1341 -93)" fill="#fff" fill-rule="evenodd"/>
  </g>
</svg>
