<svg id="ic_twitter" xmlns="http://www.w3.org/2000/svg" width="22" height="19.25" viewBox="0 0 22 19.25">
  <path id="Path_2154" data-name="Path 2154" d="M327,248.689a7.546,7.546,0,0,1-2.519.769,5.155,5.155,0,0,0,1.892-2.655,7.026,7.026,0,0,1-2.832,1.08l0,0a4.382,4.382,0,0,0-3.282-1.511,4.723,4.723,0,0,0-4.539,4.888,5.206,5.206,0,0,0,.117,1.089h0a12.764,12.764,0,0,1-9.614-5.071,5.12,5.12,0,0,0,1.376,6.458,2.764,2.764,0,0,1-1.981-.551,4.672,4.672,0,0,0,3.5,4.775,3.312,3.312,0,0,1-1.889.153,4.368,4.368,0,0,0,4.056,3.319A7.113,7.113,0,0,1,305,263.463a12.905,12.905,0,0,0,7.1,2.162c7.322,0,13.009-6.39,12.7-14.274,0-.009,0-.018,0-.027s0-.042,0-.061,0-.049,0-.074A8.182,8.182,0,0,0,327,248.689Z" transform="translate(-305 -246.375)" fill="#38a1f3"/>
</svg>
