<svg id="ic_water" xmlns="http://www.w3.org/2000/svg" width="14.662" height="12" viewBox="0 0 14.662 12">
  <path id="Path_418" data-name="Path 418" d="M1060.667,12.6a3.334,3.334,0,1,1,3.933-3.933h2.07a.726.726,0,0,1,.71.664l.16,2.223,1.127-1.129.007-2.391c0-.737.423-.911.943-.392l2.747,2.744c.52.52.343.943-.393.944l-2.323,0-1.98,1.981.287,4.023a.61.61,0,0,1-.617.664h-6.006a.665.665,0,0,1-.663-.664Zm0-3.27a.665.665,0,0,1,.663-.664h1.89a2,2,0,1,0-2.553,2.553Z" transform="translate(-1058 -6)" fill="#fff" fill-rule="evenodd"/>
</svg>
